<?xml version="1.0" encoding="UTF-8"?>
<svg data-bbox="0 0 1563 1010" viewBox="0 0 1563 1010" height="1010" width="1563" xmlns="http://www.w3.org/2000/svg" data-type="color">
    <g>
        <path d="M0 0h1563v1010H0V0z" fill="#FDFDFD" clip-rule="evenodd" fill-rule="evenodd" data-color="1"/>
        <path d="M710.776 210.388c-57.88 12.289-108 38.99-150.9 81.1 8.441 5.009 16.115 9.866 24.065 14.218 18.422 10.083 37.501 18.733 57.291 25.834 4.149 1.489 5.956 1.34 8.174-3.218 16.702-34.325 37.826-65.745 63.435-94.102 3.681-4.075 7.536-7.998 11.111-12.163 2.355-2.745 4.555-2.937 7.16-.532 2.645 2.442 6.103 3.962 8.706 7.403-31.602 32.154-57.697 68.006-77.334 109.176 10.895 3.528 21.584 5.79 32.254 8.104 20.894 4.531 42.146 6.053 63.404 7.575 3.911.28 5.168-.893 5.146-4.918-.154-28.996-.088-57.994-.067-86.992.001-1.919-.349-3.931.762-5.957 3.97.505 4.95 3.957 6.521 6.342 5.93 8.995 9.53 18.424 8.973 29.82-.911 18.621-.258 37.318-.27 55.983-.003 5.776.505 6.224 6.36 5.511 5.53-.673 6.202.09 4.767 5.51a200.139 200.139 0 0 1-2.048 7.203c-.65 2.128-2.141 3.663-4.362 3.377-4.968-.639-4.787 2.342-4.751 5.8.122 11.757-5.729 22.654-15.999 29.255v-20.608l.002-5c0-9.184.008-9.4-9.196-9.733-31.949-1.154-63.251-6.289-93.96-15.062-3.18-.908-4.508-.607-5.882 2.727-6.296 15.267-11.604 30.845-15.774 46.811-1.071 4.1-2.368 7.016-7.562 7.546-6.132.626-8.983 5.91-11.314 11.299-2.084-3.223-1.668-6.171 3.716-24.809 2.4-8.308 4.885-16.599 7.657-24.788 2.761-8.158 5.93-16.179 8.992-24.454-3.611-2.693-7.945-3.484-11.917-4.982-26.111-9.85-50.957-22.209-74.335-37.435-3.658-2.383-5.646-2.332-8.62 1.097-33.992 39.172-56.541 84.073-67.64 134.682-3.676 16.763-5.676 33.799-6.526 50.959-.132 2.678.417 3.974 3.463 3.968 44.329-.08 88.658-.072 132.987-.101.308 0 .615-.21 1.545-.549 1.063-23.388 2.857-46.983 7.854-70.149 2.944.002 3.204 2.069 3.395 3.458.586 4.269 3.107 7.56 5.906 10.196 3.129 2.947 3.636 5.86 2.99 9.749-2.265 13.654-2.949 27.464-3.852 41.256-.286 4.387.748 6.144 5.653 6.121 42.329-.188 84.659-.176 126.988-.01 4.533.019 5.783-1.447 5.51-5.729-.329-5.146-.043-10.328-.08-15.494-.015-1.901.013-3.829 2.01-4.718 4.363-1.942 8.795-3.73 14.207-6.006 0 8.67.028 16.406-.008 24.144-.042 9.324-.01 7.675 7.856 7.683 41.33.041 82.66-.046 123.988.127 4.651.02 6.139-1.327 5.875-5.947-1.413-24.813-4.246-49.417-9.892-73.661-4.802-20.618-11.208-40.71-19.181-60.32-1.153-2.836-2.326-3.854-5.537-2.813-5.673 1.838-11.523 3.13-18.271 4.905 1.142-5.257 2.169-9.787 3.104-14.336 1.29-6.28 7.987-3.673 11.994-7.652-11.016-12.859-6.166-28.318-6.197-43.305 5.812 7.815 10.3 16.271 14.804 24.716 1.956 3.667 4.081 7.283 5.607 11.13 1.292 3.255 3.223 3.258 5.888 2.298 17.249-6.218 34.111-13.314 50.363-21.838 10.035-5.263 19.804-10.975 29.384-17.02.697-.439 1.437-.812 1.841-1.038-.968-3.458-3.297-4.684-5.048-6.384-14.633-14.202-30.92-26.336-48.151-37.094-19.462-12.15-40.223-21.799-62.108-28.777-4.604-1.467-6.902-4.174-8.096-8.387-.898-3.174-1.66-6.388-2.449-9.452 1.186-1.431 2.487-1.209 3.805-.815 35.167 10.499 67.801 26.109 97.461 47.868 38.741 28.421 69.779 63.578 92.632 105.829 13.818 25.549 23.856 52.521 30.159 80.973 5.864 26.473 8.814 53.212 7.656 80.192-.824 19.189-3.198 38.296-7.46 57.205-6.554 29.08-16.677 56.7-30.894 82.808-21.382 39.266-49.774 72.567-85.346 99.786-32.315 24.728-68.098 42.479-107.12 53.62-20.463 5.843-41.439 9.18-62.698 10.884-21.328 1.711-42.465.534-63.646-2.128-31.188-3.92-60.95-12.631-89.477-25.638-43.844-19.991-81.209-48.499-112.069-85.568-27.952-33.575-48.043-71.34-60.285-113.201-7.013-23.98-10.969-48.491-12.21-73.549-1.134-22.903.051-45.624 3.861-68.089 5.563-32.794 15.91-64.133 31.566-93.636 7.406-13.957 15.549-27.44 24.926-40.128 25.617-34.666 56.785-63.287 93.868-85.376 24.002-14.297 49.437-25.205 76.421-32.51 3.632-.983 6.844-.586 10.083 1.14 4.54 2.417 9.143 4.716 13.699 7.1.213.107.245.557.687 1.683z" fill="#1D1F21" clip-rule="evenodd" fill-rule="evenodd" data-color="2"/>
        <path d="M645.515 434.622c2.512-.928 4.086.658 5.754 1.471 63.046 30.733 138.915-5.222 154.804-73.667 7.185-30.954 1.535-60.657-11.361-89.06-14.569-32.089-38.117-56.199-68.23-74.188-32.983-19.702-69.091-30.018-106.69-36.001-12.012-1.911-24.1-3.108-36.199-4.232-1.13-.104-2.241-.397-4.586-.828 4.771-2.699 9.026-3.649 13.12-4.851 26.921-7.903 54.598-10.005 82.475-10.842 18.47-.555 36.843-2.083 55.082-5.563 22.888-4.367 41.624-15.289 56.773-32.849 8.154-9.452 16.644-18.622 25.979-26.948 12.344-11.008 25.96-20.145 41.037-27.844.52 2.471-1.208 3.579-2.134 4.919-12.93 18.703-22.919 38.629-26.237 61.454-2.579 17.743-1.166 35.252 3.012 52.551 5.005 20.727 12.699 40.659 18.509 61.154 9.438 33.294 12.849 67.108 7.093 101.354-7.751 46.111-28.737 84.614-67.971 111.528-25.716 17.641-54.278 25.043-85.419 20.149-20.238-3.181-37.926-12.127-53.558-25.252a4.913 4.913 0 0 1-.988-1.108c-.164-.252-.136-.626-.265-1.347z" fill="#224773" clip-rule="evenodd" fill-rule="evenodd" data-color="3"/>
        <path d="M816.65 938.457c8.821 2.752 17.151 5.4 25.513 7.945 9.361 2.85 18.737 5.654 28.136 8.377 3.881 1.123 4.888 3.018 3.359 7-2.018 5.262-3.238 10.802-6.873 15.368-2.478 3.112-4.759 4.202-8.842 2.177-18.772-9.312-38.974-15.687-57.293-25.694-12.151-6.639-21.925-2.406-32.423 1.466-15.051 5.55-28.378 14.576-42.521 21.966-4.565 2.386-9.181 4.697-13.881 6.802-4.787 2.144-7.719 1.031-10.292-3.632-2.09-3.787-3.909-7.73-6.142-11.428-1.782-2.951-1.111-4.808 1.622-6.6 8.645-5.664 18.455-8.266 28.25-10.869 6.735-1.79 13.454-3.595 19.884-6.32 1.958-.83 3.984-1.652 5.124-4.354-8.372-4.123-17.127-6.479-25.913-8.655-11.101-2.75-22.267-5.237-33.399-7.856-9.98-2.348-18.224 1.913-26.214 6.957-6.321 3.99-12.247 8.605-19.193 11.583-7.657 3.283-15.825 3.99-23.911 4.132-13.567.236-26.86-1.67-39.023-8.361-1.259-.693-2.838-1.162-3.139-3.242 2.457-2.158 5.839-2.621 8.782-3.883 12.552-5.377 23.556-13.743 36.382-18.588 4.882-1.845 9.916-2.631 15.02-3.296 1.459-.19 3.134-.253 3.685-2.038.549-1.778-.881-2.602-1.872-3.73-7.847-8.944-14.256-18.411-15.932-30.823-1.168-8.651-4.301-17.045-6.661-25.523-.579-2.082-1.247-4.081-.713-6.772 4.396.293 7.909 2.406 11.414 4.338 15.52 8.553 26.99 21.455 37.494 35.332 4.419 5.837 8.87 11.69 12.746 17.887 3.965 6.34 10.52 8.604 16.613 11.362 32.794 14.847 67.317 20.348 103.083 17.485 21.19-1.695 41.413-7.616 60.733-16.501 7.665-3.525 12.982-9.862 18.037-16.204 9.844-12.352 19.01-25.244 28.892-37.564 6.702-8.354 14.762-15.366 24.495-20.184 1.182-.585 2.409-1.158 3.681-1.463 3.132-.753 4.216.36 3.673 3.696-3.427 21.067-12.74 39.646-23.957 57.45-.95 1.508-2.348 2.842-2.352 5.633 23.813 6.471 46.406 17.857 72.049 18.644-.406 3.533-2.711 4.514-4.547 5.73-14.227 9.437-29.969 13.085-46.918 12.33-18.994-.845-36.482-6.771-53.149-15.472-3.061-1.598-6.022-2.554-9.499-2.154-17.01 1.956-33.458 5.899-48.859 13.594-1.612.803-3.395 1.442-5.149 3.952z" fill="#0E7E47" clip-rule="evenodd" fill-rule="evenodd" data-color="4"/>
        <path d="M464.295 719.907c8.936 6.703 14.423 14.563 18.583 23.536 5.649 12.186 8.302 25.231 10.948 38.245 2.685 13.201 5.444 26.338 10.965 38.721.376.843 1.075 1.748.471 2.614-26.684-1.394-52.367-6.521-76.021-19.282-11.456-6.18-20.953-14.658-27.642-26.013-.496-.844-1.252-1.598-.589-3.318 20.04 1.535 40.118 3.843 61.111 9.534-5.918-22.095 2.005-42.322 2.174-64.037z" fill="#0E7E47" clip-rule="evenodd" fill-rule="evenodd" data-color="4"/>
        <path d="M1043.749 815.036c20.667-1.696 40.147 6.613 60.986 8.983-1.144 4.55-4.467 6.267-7.118 8.06-17.555 11.874-36.808 19.277-57.902 22.297-12.68 1.814-25.136 1.827-37.696-.38-6.187-1.087-6.897-1.859-4.834-7.564 6.604-18.26 11.433-37.179 20-54.704 5.9-12.069 13.403-22.966 24.575-30.866 1.532-1.083 3.056-3.092 5.281-1.733 2.127 1.298.804 3.336.483 4.997-2.896 15.021-4.954 30.125-4.779 45.462.019 1.613-.493 3.331 1.004 5.448z" fill="#0E7E47" clip-rule="evenodd" fill-rule="evenodd" data-color="4"/>
        <path d="M992.676 804.109c-1.414 4.066-2.923 7.856-4.054 11.755-4.01 13.82-3.955 28.252-6.194 42.342-.156.985-.144 2.003-.355 2.974-1.792 8.214-1.819 8.272 5.931 10.371 8.473 2.294 16.694 5.404 25.374 7.074 9.336 1.795 18.57 3.685 28.104 1.706.569-.118 1.238.242 1.732.352.429 1.13.03 1.882-.658 2.385-10.174 7.422-19.71 15.817-31.869 20.148-11.719 4.174-23.539 3.288-35.385 1.023-13.075-2.499-25.579-7.109-38.375-10.646-3.224-.891-4.613-2.236-2.955-5.617 8.635-17.608 14.566-36.469 24.528-53.454 7.438-12.683 16.68-23.655 30.447-29.979.923-.424 1.771-.913 3.729-.434z" fill="#0E7E47" clip-rule="evenodd" fill-rule="evenodd" data-color="4"/>
        <path d="M1094.098 699.102c.823 5.287 1.729 10.117 2.305 14.987 1.834 15.512 3.566 31.036 5.289 46.562.413 3.717 1.502 4.809 5.801 3.868 14.098-3.085 28.363-5.409 42.571-7.989.607-.11 1.282.144 2.503.304-1.639 4.074-5.218 6.138-7.581 9.114-6.402 8.065-12.27 16.571-19.751 23.763-9.381 9.019-20.905 12.419-33.47 13.556-9.165.829-18.302.285-27.447-.027-5.714-.194-6.454-1.276-4.869-6.653 4.337-14.717 5.983-29.963 8.854-44.968 3.396-17.738 7.362-35.213 20.128-49.1 1.759-1.915 1.745-1.928 5.667-3.417z" fill="#0E7E47" clip-rule="evenodd" fill-rule="evenodd" data-color="4"/>
        <path d="M552.026 914.578c-14.457-.263-27.871-4.344-38.743-15.062-1.146-1.13-2.745-2.178-2.195-4.147.6-2.146 2.676-1.704 4.188-1.945 3.593-.572 7.251-.743 10.837-1.35 12.427-2.101 23.961-7.468 36.29-10.007 4.248-.875 8.499-1.28 12.775-1.788 4.835-.574 5.45-2.029 2.967-6.021-4.738-7.613-6.476-16.038-7.789-24.811-1.735-11.587-1.689-23.588-6.821-34.519-.582-1.242-1.132-2.498.166-3.609 1.427-1.221 2.744-.504 4.092.29 7.848 4.625 14.337 10.878 19.88 17.926 10.165 12.924 17.442 27.495 23.938 42.601 3.097 7.202 6.387 14.451 10.212 21.357 2.383 4.302.691 6.075-3.413 6.927-7.439 1.545-14.831 3.253-22.175 5.245-10.556 2.863-20.957 6.339-31.844 7.994-3.989.609-7.952.412-12.365.919z" fill="#0E7E47" clip-rule="evenodd" fill-rule="evenodd" data-color="4"/>
        <path d="M507.784 769.014c8.695.611 14.698 5.8 20.018 11.713 7.138 7.935 11.812 17.384 15.598 27.325 5.482 14.396 9.076 29.377 13.922 43.969 3.373 10.155 3.22 10.315-7.269 11.758-5.418.745-10.91.934-16.348 1.558-12.858 1.476-25.756 2.65-38.667 1.368-14.607-1.451-27.508-7.107-38.307-17.227-1.354-1.269-2.695-2.603-2.045-4.721.683-2.221 2.549-2.241 4.436-2.375 14.242-1.011 28.067-4.797 42.243-6.372 5.271-.586 10.223.517 15.32.837 1.646.104 3.555.792 4.671-.729 1.106-1.51.102-3.105-.763-4.592-4.796-8.245-6.508-17.302-7.293-26.69-.911-10.901-1.139-21.956-5.523-32.279-.384-.907-.749-1.856.007-3.543z" fill="#0E7E47" clip-rule="evenodd" fill-rule="evenodd" data-color="4"/>
        <path d="M1192.486 499.362c9.645-17.235 24.73-27.843 35.76-41.888 3.028 1.605 2.854 3.899 3.005 6.021 1.805 25.588-6.429 48.026-21.336 68.431-4.921 6.736-10.684 12.714-16.185 18.936-2.215 2.505-3.84 2.378-5.824-.463-13.292-19.028-25.176-38.79-31.581-61.325-3.73-13.127-6.022-26.5-4.82-40.25.067-.763.38-1.505.889-3.428 14.93 17.098 30.035 32.829 40.092 53.966z" fill="#0E7E47" clip-rule="evenodd" fill-rule="evenodd" data-color="4"/>
        <path d="M357.08 309.149c9.268 17.276 18.677 34.526 21.54 55.351l50.811-16.292c1.598 1.453 1.122 2.493.688 3.3-5.764 10.703-11.784 21.205-21.384 29.126a94.037 94.037 0 0 0-9.047 8.57c-10.599 11.426-24.867 17.67-37.224 26.605-2.975 2.151-4.559.833-6.176-2.007-10.49-18.424-13.968-38.229-11.917-59.142 1.402-14.299 4.854-28.139 9.756-41.623.48-1.319.506-3.041 2.953-3.888z" fill="#0E7E47" clip-rule="evenodd" fill-rule="evenodd" data-color="4"/>
        <path d="M1084.136 239.386c-2.341-11.977-1.972-22.93-1.392-33.817.543-10.217 2.537-20.305 5.479-30.133.65-2.174-.065-4.295.572-6.379.355-1.165.738-2.27 2.191-2.263 1.193.006 1.664.974 2.009 1.907 6.555 17.768 15.602 34.612 20.177 53.101 4.133 16.702 3.791 33.293-2.684 49.503-.821 2.059-1.479 3.361-4.238 2.883-13.728-2.377-27.725-3.221-41.138-7.381-18.523-5.744-28.712-19.352-34.709-36.857-.512-1.491-.778-3.245.488-5.557 17.657 3.523 34.646 10.407 53.245 14.993z" fill="#0E7E47" clip-rule="evenodd" fill-rule="evenodd" data-color="4"/>
        <path d="M437.139 184.914c15.269 20.185 15.637 44.013 16.902 68.34l55.299-11.184c.845 3.262-.728 5.237-2.076 7.265-10.226 15.359-23.717 26.826-41.08 33.212-6.177 2.271-12.808 3.473-19.329 4.593-6.245 1.072-12.232 2.854-18.156 4.963-2.954 1.052-4.149 1.685-4.665-2.965-.814-7.348-.015-14.991-2.84-22.096-.983-2.473.476-4.854.371-7.353-.671-16.187 1.139-32.151 5.104-47.837 2.333-9.234 5.24-18.304 10.47-26.938z" fill="#0E7E47" clip-rule="evenodd" fill-rule="evenodd" data-color="4"/>
        <path d="M442.573 762.312c-22.679-6.282-44.589-12.801-64.005-25.471-10.28-6.709-19.428-14.53-25.597-25.37-.798-1.401-1.958-2.717-1.205-4.772 8.425-.431 16.778.896 25.034 2.231 11.625 1.882 23.132 4.485 33.528 10.531 2.476 1.439 3.927.751 4.968-2.43 5.936-18.131 12.191-36.156 18.361-54.21.521-1.524.67-3.481 2.707-3.837 2.218-.388 3.106 1.457 4.255 2.866 8.228 10.097 9.891 21.682 8.358 34.247-1.714 14.05-6.062 27.559-7.947 41.585-1.127 8.385-.171 16.458 1.543 24.63z" fill="#0E7E47" clip-rule="evenodd" fill-rule="evenodd" data-color="4"/>
        <path d="M360.496 587.405l33.906-53.42c2.898.689 3.227 2.491 3.798 3.959 4.492 11.531 5.033 23.139 1.331 35.086-3.963 12.79-10.235 24.505-15.992 36.473-3.827 7.958-6.918 16.152-8.561 24.87-.739 3.923-2.691 4.17-6.32.839-10.532-9.664-20.734-19.718-31.654-28.919-7.849-6.613-13.71-14.436-18.076-23.496-4.301-8.929-6.216-18.527-6.887-28.361-.187-2.728.361-4.801 3.997-2.685 13.854 8.066 26.829 17.206 37.559 29.28 1.858 2.092 4.118 3.827 6.899 6.374z" fill="#0E7E47" clip-rule="evenodd" fill-rule="evenodd" data-color="4"/>
        <path d="M336.062 633.077c17.594 6.478 35.402 12.988 49.673 27.802 3.185-6.928 5.887-13.09 8.826-19.137 4.777-9.829 9.326-19.737 11.728-30.465.505-2.254.622-4.599.86-6.908.138-1.33.042-2.847 1.618-3.317 1.507-.45 2.45.716 3.284 1.743 3.347 4.125 4.608 9.165 5.938 14.124 3.062 11.415 4.009 23.063 2.956 34.812-1.705 19.021-7.316 36.965-15.253 54.685-5.323-1.295-8.798-5.217-12.659-7.829-7.862-5.318-16.588-8.785-24.901-12.961-11.311-5.68-18.959-14.209-25.117-24.771-4.105-7.04-5.592-14.957-8.204-22.495-.517-1.494-.653-3.301 1.251-5.283z" fill="#0E7E47" clip-rule="evenodd" fill-rule="evenodd" data-color="4"/>
        <path d="M325.893 391.559c2.75.244 3.393 2.348 4.419 3.981 7.332 11.664 14.699 23.307 21.898 35.053 2.138 3.488 3.848 4.735 7.604 1.555 11.611-9.835 24.562-17.648 38.341-24.095 3.005-1.406 5.979-2.859 10.022-2.671.975 7.01-1.641 13.093-4.041 19.153-5.483 13.848-15.904 24.063-25.954 34.466-9.471 9.804-19.291 19.266-26.842 30.737-.417.633-1.206 1.021-1.793 1.5-21.322-18.469-35.401-77.627-23.654-99.679z" fill="#0E7E47" clip-rule="evenodd" fill-rule="evenodd" data-color="4"/>
        <path d="M1116.213 324.559c7.781 1.063 17.539 4.681 27.6 7.018 5.281 1.227 10.446 2.978 15.747 4.093 3.618.761 4.839-1.328 4.162-4.901-1.066-5.636.15-11.253 1.739-16.632 2.291-7.755 5.076-15.363 7.654-23.033.66-1.965 1.599-3.873 3.936-3.917 2.091-.039 2.434 1.977 2.989 3.498 4.893 13.414 10.654 26.535 13.713 40.571.979 4.495 1.136 8.973 1.009 13.604-.259 9.505-2.129 18.59-5.272 27.483-.386 1.091-.771 2.193-1.29 3.222-5.666 11.214-6.252 11.43-15.914 4.014-8.063-6.188-17.684-9.1-26.766-13.131-15.058-6.685-27.463-16.212-34.779-31.412-.646-1.344-1.156-2.759-1.656-4.166-2.134-6.009-1.62-6.719 7.128-6.311z" fill="#0E7E47" clip-rule="evenodd" fill-rule="evenodd" data-color="4"/>
        <path d="M1188.515 413.706l22.173-38.732c3.948 3.608 3.389 7.977 4.097 11.549 1.704 8.603 2.935 17.329 3.8 26.062 2.137 21.555-5.357 39.566-20.837 54.448-3.499 3.363-4.663 3.153-6.836-1.353-3.848-7.979-8.778-15.116-15.188-21.322-11.555-11.188-22.497-22.988-31.929-36.032-4.65-6.431-8.129-13.658-10.751-21.219-.668-1.927-1.282-3.925.371-5.621 1.736-1.781 3.419-.224 5.023.402 18.414 7.178 35.844 15.944 50.077 31.818z" fill="#0E7E47" clip-rule="evenodd" fill-rule="evenodd" data-color="4"/>
        <path d="M1061.683 280.634c4.696.359 9.146.379 13.483 1.09 14.151 2.319 28.471 2.406 42.711 3.531 3.874.306 5.996-1.133 5.842-5.376-.438-11.992 2.338-23.417 6.417-34.582 2.428-6.645 4.285-13.453 5.474-20.699 2.541 1.371 2.936 3.612 3.291 5.302 2.788 13.249 9.561 25.19 12.452 38.374 3.226 14.71 3.771 29.298-2.48 43.499-2.617 5.947-2.672 5.864-8.639 3.592-12-4.569-24.684-4.686-37.282-5.521-18.617-1.235-32.138-10.556-40.916-26.903-.283-.526-.203-1.245-.353-2.307z" fill="#0E7E47" clip-rule="evenodd" fill-rule="evenodd" data-color="4"/>
        <path d="M393.021 467.15c3.057 7.838 1.8 15.541.317 23.099-3.095 15.775-10.941 29.488-19.464 42.84-6.534 10.237-12.97 20.517-17.131 32.021-.343.949-.821 1.832-1.898 2.163-19.079-8.783-50.717-69.023-44.957-86.438 5.533 2.104 9.552 6.385 14.142 9.687 8.765 6.303 17.29 12.938 25.896 19.461 1.722 1.305 3.524 2.569 4.896-.151 4.842-9.611 12.819-16.499 20.553-23.517 6.406-5.814 12.144-12.156 17.646-19.165z" fill="#0E7E47" clip-rule="evenodd" fill-rule="evenodd" data-color="4"/>
        <path d="M1201.283 686.199c-1.998 3.48-3.827 7.11-6.059 10.472-9.047 13.635-21.428 23.421-36.111 30.307-10.281 4.82-20.783 9.168-31.14 13.831-5.521 2.485-8.218.944-9.426-4.889-1.934-9.332-4.257-18.585-6.486-27.854a62.39 62.39 0 0 1-1.73-14.339c-.035-6.923.136-13.849-.031-20.767-.218-9.043 2.858-17.122 6.794-25.001.997-1.996 2.021-3.896 4.806-3.425 2.559.434 2.768 2.572 3.343 4.448 4.245 13.854 8.378 27.745 13.615 41.272.354.916.506 1.937.604 2.923.582 5.831 3.029 7.127 8.465 4.601 16.441-7.642 34.045-10.483 51.859-12.411.265-.028.57.304 1.497.832z" fill="#0E7E47" clip-rule="evenodd" fill-rule="evenodd" data-color="4"/>
        <path d="M723.789 118.479c-18.463-.144-33.002-15.14-32.757-33.786.237-18.055 15.018-32.558 33.056-32.437 18.818.126 32.987 14.569 32.847 33.481-.138 18.477-14.724 32.885-33.146 32.742z" fill="#1E7EB3" clip-rule="evenodd" fill-rule="evenodd" data-color="5"/>
        <path d="M1135.146 614.681c-.445-6.904-.594-13.81 3.123-20.063.229-.385.169-.952.206-1.438.177-2.301-1.176-5.625 2.429-6.025 3.156-.352 3.102 3.368 3.656 5.121 3.272 10.331 10.111 18.479 15.843 27.313 2.858 4.406 6.001 8.71 8.197 13.439 1.668 3.592 3.959 3.005 5.871 1.539 12.511-9.584 26.891-16.625 38.096-27.976.943-.956 1.975-1.986 3.461-1.13 1.476.849 1.159 2.377.807 3.577-2.078 7.079-3.014 14.452-5.622 21.396-3.85 10.252-8.102 20.404-15.646 28.457-4.377 4.671-10.128 7.796-15.93 10.972-7.224 3.954-14.699 6.186-22.336 8.654-5.006 1.619-7.695-.521-9.093-4.195-2.906-7.641-5.802-15.279-7.939-23.258-2.124-7.928-3.238-15.998-4.973-23.96-.863-3.963-.15-8.271-.15-12.423z" fill="#0E7E47" clip-rule="evenodd" fill-rule="evenodd" data-color="4"/>
        <path d="M1231.735 528.065c1.882 7.616.011 13.457-1.22 19.133-3.899 17.981-11.813 33.774-26.209 45.927-7.74 6.534-13.956 14.717-22.011 20.973-2.391 1.857-4.11 2.474-5.958-.633-10.026-16.852-20.863-33.307-26.36-52.408-3.564-12.388-5.798-24.946-2.684-37.84.182-.752.57-1.455 1.435-3.603 6.848 9.813 12.193 19.398 19.257 27.723 7.176 8.458 14.119 17.113 21.646 26.269l42.104-45.541z" fill="#0E7E47" clip-rule="evenodd" fill-rule="evenodd" data-color="4"/>
        <path d="M410.752 309.903c16.477-6.326 33.262-8.478 50.482-7.615 2.252.113 4.903-.598 6.013 2.293 1.079 2.812-1.234 4.177-2.759 5.869-9.26 10.288-20.7 17.281-33.59 21.967-8.549 3.106-17.258 5.772-25.81 8.872-3.99 1.446-7.854 3.301-11.634 5.248-3.468 1.787-5.493.679-6.333-2.774-5.14-21.135-6.925-42.55-3.284-64.041 1.412-8.331 4.812-16.352 7.6-24.412 1.224-3.539 3.458-3.636 5.7-.528 5.444 7.549 8.607 15.854 10.646 25.073 1.879 8.494 1.683 16.789 1.658 25.222-.003 1.582.398 2.924 1.311 4.826z" fill="#0E7E47" clip-rule="evenodd" fill-rule="evenodd" data-color="4"/>
        <path d="M646.296 38.786c.247-3.473 2.422-3.736 3.891-4.489 16.733-8.58 33.516-17.066 50.279-25.587 1.653-.84 3.347-1.371 5.234-1.473 18.624-.999 37.244-2.073 55.869-3.047 1.797-.094 4.565-.996 4.652 2.041.06 2.102-1.121 3.522-3.988 3.979-7.275 1.156-10.052 4.942-10.426 12.441-.266 5.319-.637 10.635-.974 15.951-.344 5.435-1.131 5.922-6.01 3.675-9.476-4.363-19.297-6.041-29.633-3.926-12.818 2.623-22.967 9.311-30.499 19.989-3.026 4.29-4.336 4.379-7.194.085a483.46 483.46 0 0 1-10.46-16.394c-1.466-2.405-3.238-3.438-6.108-3.306-4.775.22-9.568.061-14.633.061z" fill="#224773" clip-rule="evenodd" fill-rule="evenodd" data-color="3"/>
        <path d="M1007.776 143.76c8.045.067 14.288 3.447 20.412 6.989 22.986 13.296 36.557 33.597 43.358 58.828.862 3.198 1.244 6.523 1.913 9.776 1.329 6.464-.132 7.907-6.19 5.854-22.081-7.485-38.563-20.927-46.523-43.563-4.021-11.431-8.352-22.752-12.494-34.142-.323-.888-.258-1.918-.476-3.742z" fill="#0E7E47" clip-rule="evenodd" fill-rule="evenodd" data-color="4"/>
        <path d="M463.307 237.646c-1.215-5.25-.743-10.428-.42-15.47 1.891-29.447 18.24-49.055 43.275-62.52 5.554-2.987 11.287-5.656 17.468-7.193 1.163-.289 2.309-.763 3.112.499.65 1.02.021 1.933-.593 2.722-8.938 11.474-13.671 25.065-18.943 38.317-6.54 16.44-16.82 29.667-31.577 39.391-3.594 2.368-7.344 4.497-12.322 4.254z" fill="#0E7E47" clip-rule="evenodd" fill-rule="evenodd" data-color="4"/>
        <path d="M774.577 56.09c-5.06-.19-3.774-5.609-5.04-8.807-1.137-2.872 1.463-5.006 4.067-5.678 3.242-.836 5.934 3.045 6.569 8.893.362 3.319-1.192 5.143-5.596 5.592z" fill="#224773" clip-rule="evenodd" fill-rule="evenodd" data-color="3"/>
        <path d="M648.421 638.009l-1.303-.117c-1.479-1.709-.491-4.26-2.029-5.949l-.029-.033c-5.018-2.384-9.941-4.828-13.24-9.654-1.534-2.245-3.902-3.446-6.757-3.373-4.012-1.677-6.702-5.385-11.005-7.338-1.188 3.983-.937 7.791-.358 11.431 1.332 8.387 1.737 16.878 3.222 25.246 1.194 6.729-.711 8.878-7.494 9.137-2.828.107-5.668.169-8.488-.008-4.314-.271-8.568-.979-11.96 2.956-1.181 1.37-3.429 1.084-5.258 1.062-9.805-.121-19.6.066-29.392.611-1.526.085-3.039.067-4.259 1.063-2.908 2.375-5.088 1.185-7.296-1.165-4.758-5.063-9.718-9.542-17.655-7.917-2.804.574-4.441-1.335-3.675-4.334 2.028-7.935-.696-15.426-2.327-22.932-.748-3.438-.104-4.752 3.134-4.961 4.82-.311 9.653-.146 14.479-.115 3.331.021 5.038-1.36 4.846-4.748-.243-4.257.62-7.842 4.806-10.097 2.629-1.417 2.176-4.261 2.215-6.733.18-11.428.172-11.428 11.61-11.436 1.165-.001 2.331.025 3.495-.011 4.738-.146 5.801-1.133 5.857-5.403.061-4.522-1.088-5.659-6.018-5.776-3.328-.079-6.659.02-9.987-.04-1.978-.035-4.005.025-5.664-1.618 1.292-3.098 4.243-4.256 6.542-6.031 5.355-4.138 8.969-8.544 8.564-16.245-.376-7.164 3.856-13.146 10.381-16.476 6.103-3.115 10.421-7.359 12.964-13.78 1.76-4.445 2.823-4.477 7.062-1.743.843.543 1.686 1.359 2.637 1.351 7.619-.07 15.516 2.786 22.706-2.011 1.405-.937 3.085-1.236 4.528-2.07l1.648-.838c5.264-3.413 11.141-4.375 16.185-4.054.293-.073-.454-.128-1.1-.694 3.959-2.344 8.353-1.08 12.505-1.239 4.817-.184 9.554-.485 14.22-1.664 3.072-.776 6.152-.412 9.166.1 3.838.65 6.842-2.117 10.405-2.188 1.854-.037 3.98-.823 5.573.963.583 1.873 2.269 3.153 2.329 5.402.132 4.925.907 5.39 5.646 3.332 3.323-1.442 6.144-1.097 8.733 1.339 3.507 3.298 4.2 11.863 1.307 15.745-2.712 3.64-2.444 4.749 1.865 5.754 7.662 1.786 14.473 5.94 22.116 7.757 1.822.434 3.211 1.701 4.516 3.024 1.899 1.928 4.123 3.372 6.696 4.242 5.576 1.887 8.194.052 8.069-5.892-.077-3.669 1.438-5.875 4.844-7.243 4.508-1.812 8.969-2.399 13.636-.814 11.499 3.906 23.403 6.336 35.069 9.631 3.377.953 6.437 1.112 9.654-.501 4.978-2.494 10.055-2.733 15.492-.995 8.333 2.665 13.829.366 16.96-7.633 2.505-6.399 6.488-12.325 6.246-19.802-.146-4.537 6.963-9.932 12.201-9.743 11.477.411 22.215-3.512 33.318-5.262 4.111-.451 8.062-.199 11.432 2.603 2.65 3.145 3.653 7.423 7.346 9.937 1.799 1.225 1.41 3.454.468 5.484-3.251 7-2.639 12.019 4.088 15.527 7.186 3.749 8.437 10.113 10.514 16.49.156.479.306 1.004.196 1.475-2.08 8.896 3.3 14.904 8.527 20.609 3.328 3.631 5.101 7.684 6.146 12.357 1.681-.041 1.573-1.576 2.332-2.226 2.29-1.96 4.34-1.427 5.262 1.502.564 1.792.177 3.625.061 5.454-.217 3.428 1.114 4.459 4.508 3.575 2.688-.699 4.631-2.518 6.519-4.442 2.119-2.16 4.336-3.752 7.31-1.125 2.213 1.955 3.575-.165 5.091-1.336 4.329-3.344 5.748-2.865 6.981 2.419 1.114 4.775 3.684 8.126 8.702 9.191 3.693.785 6.756 2.564 9.372 5.359 4.164 4.451 4.45 6.003.642 10.612-2.211 2.676-4.188 5.636-7.299 7.463-.872.513-1.81 1.19-1.939 2.19-1.099 8.43-8.608 10.763-13.855 15.512-5.049 4.57-10.989 5.68-16.754 7.87-2.083.791-3.868 1.99-4.938 4.004-1.41 2.652-3.609 4.5-6.373 5.319-8.979 2.664-16.878 8.013-25.722 10.687-6.168 1.865-12.258 3.937-18.402 5.859-4.681 1.465-6.03.27-8.131-3.989-3.876-7.856-6.715-15.906-6.604-24.79.007-.492-.088-1.068-.397-1.429-5.317-6.185-7.517-14.484-13.706-20.086-4.388-3.971-6.983-8.939-7.142-14.891-.104-3.893-1.095-7.717-3.945-9.934-5.552-4.316-7.591-10.794-11.295-16.219-2.071-3.033-4.146-6.027-6.605-8.757-1.027-1.141-2.118-2.421-3.698-2.292-5.8.474-8.119-3.619-10.52-7.689-.569-.966-.751-2.265-2.704-2.694.414 3.17 2.311 5.214 4.13 7.195 1.49 1.622 2.89 3.256 3.482 5.396 1.946 7.029 6.348 12.783 9.858 18.992 1.16 2.053 2.392 3.93 2.243 6.454-.143 2.44 1.576 3.94 3.317 5.277 4.111 3.155 5.998 7.313 6.293 12.469.312 5.469.895 10.671 5.935 14.628 3.489 2.74 2.879 9.588-.839 11.346-7.614 3.602-7.896 10.749-8.93 17.25-1.047 6.587-1.76 12.86-8.297 16.587-1.432.815-2.346 2.505-2.553 4.174-.531 4.277-3.523 7.021-5.87 10.324-6.904-1.893-6.646-7.973-7.698-13.229-2.674.03-3.405 1.721-3.768 3.508-.591 2.918-2.372 5.1-4.107 7.335-2.328 3-5.19 4.165-8.741 2.245-2.183-1.179-4.092-1.085-5.937.617-3.348 3.091-6.871 3.673-11.461 2.302-4.225-1.261-8.773-1.196-12.592-4.043-1.539-1.147-3.519-.392-5.118.779-1.875 1.372-3.691 2.884-6.125 3.194-3.346-2.947-5.203-6.845-6.872-10.848-1.541-3.695-3.012-7.42-4.514-11.132.254-7.583 1.561-14.732 8.521-19.315 1.225-.807 2.178-1.659 2.144-3.097-.141-5.815.918-11.606.165-17.45-.302-2.338-1.501-3.585-3.393-4.492-10.06-4.82-19.691-10.444-29.484-15.762-5.903-3.206-12.131-6.546-18.593-6.6-5.931-.05-12.804-.261-17.993 2.141-7.551 3.496-15.049 7.924-21.008 14.176-5.745 6.027-13.128 7.458-20.968 7.407-4.783-.031-8.799 2.959-13.524 3.084-1.778.048-3.538 1.15-5.324.019z" fill="#51AF55" clip-rule="evenodd" fill-rule="evenodd" data-color="6"/>
        <path d="M779.263 699.878c2.001-1.974 4.858-2.527 6.944-4.639 1.764-1.785 4.652-1.631 6.541.851 1.795 2.358 4.124 3.153 7.028 2.761 1.127-.152 2.541-.27 3.432.259 4.917 2.923 8.565.616 11.968-2.688 1.38-1.34 2.548-1.617 4.398-.736 5.584 2.655 12.209-.936 12.637-7.305.255-3.786 2.254-5.081 5.035-6.559 2.474 2.584.432 5.652 1.355 8.227 1.009 2.812 3.345 4.413 4.986 6.029 6.484-4.174 5.021-13.382 12.357-17.229 2.69-1.411 3.32-6.072 3.413-9.549.146-5.435 2.113-10.423 3.134-15.634.635-3.24 3.564-4.148 6.02-5.498 3.803-2.091 4.978-7.397 1.45-9.701-5.16-3.371-5.876-8.057-5.98-13.305-.119-5.946-1.658-11.106-7.142-14.415-1.278-.771-2.699-2.154-2.529-3.549.771-6.313-4.174-10.149-6.264-15.194-1.262-3.05-3.124-5.784-3.91-9.123-1.159-4.925-4.926-8.497-7.462-12.717-.908-1.511-2.39-2.962-.468-4.916 3.179 2.495 3.274 7.227 6.717 9.58 1.643 1.123 2.547 3.386 5.338 1.046 1.519-1.273 4.023.407 5.231 2.338 4.002 6.394 9.216 12.074 11.429 19.53.601 2.025 2.445 3.02 4.003 4.291 4.004 3.27 6.619 7.37 6.607 12.766-.014 6.078 2.403 10.87 7.406 14.39 2.348 1.652 4.265 3.711 5.18 6.548.253.784.537 1.671 1.09 2.229 8.131 8.225 7.979 19.422 10.611 29.597.955 3.69 3.922 6.316 4.573 10.282.366 2.233 3.354 2.431 5.553 1.347 10.314-5.078 22.408-5.485 32.074-12.405 2.192-1.57 5.314-1.821 7.981-2.759 4.321-1.519 8.229-2.771 10.906-7.647 2.505-4.561 8.889-4.652 13.855-5.766 2.295-.514 4.184-.763 4.857-3.354.15-.58.742-1.474 1.159-1.49 5.605-.217 7.214-6.444 11.996-7.878 2.421-.726 2.462-2.824 2.511-4.893.064-2.792.95-4.553 3.83-6.194 3.796-2.163 6.189-6.319 8.606-10.077.374-.582.457-1.983.071-2.323-3.169-2.796-4.834-7.527-9.576-8.278-8.18-1.294-12.173-6.07-12.383-14.388-4.933-.64-5.585 5.011-9.229 5.862-4.239-5.567-4.614-5.611-9.484.089-2.106 2.466-4.192 4.74-7.789 4.511-3.339-.213-5.552-1.077-4.002-5.267.914-2.473.862-5.185-.675-7.651-2.624 1.62-2.624 1.62-4.169 6.255-1.971-1.279-3.327-3.446-3.341-5.312-.037-5.186-3.243-8.093-6.545-11.198-3.989-3.752-4.891-9.397-8.089-13.658-.186-.247-.381-.774-.263-.919 4.37-5.339-1.379-9.905-1.128-14.927.125-2.508-1.419-3.982-3.584-4.869-4.862-1.993-7.519-6.309-10.341-10.267-1.77-2.481-.958-5.354 1.023-7.793 2.533-3.117 2.857-5.906-1.296-8.098-3.311-1.747-3.239-5.631-4.919-8.42 4.642 2.909 6.36 8.612 11.674 11.289 2.973 1.497 1.969 6.332 1.327 9.823-1.375 7.472-1.38 7.471 5.469 10.963 1.31-.318 1.16-1.473 1.222-2.396.501-7.471 1.189-14.939 1.321-22.418.064-3.597 1.296-4.492 4.69-4.47 19.16.128 38.322.056 57.484.054l70.481-.001h4.832c1.372 3.561.583 6.712.377 9.801-3.18 47.626-16.417 92.231-40.487 133.505-8.273 14.187-17.593 27.676-28.096 40.347-2.229 2.689-3.639 2.828-6.5.911-7.464-5.001-15.202-9.594-22.86-14.302-1.979-1.217-3.678-1.911-6.325-.429-2.964 1.66-6.717 1.708-10.067.367-2.921 7.812-2.82 7.64 3.722 11.441 8.201 4.767 16.185 9.906 24.331 14.769 3.046 1.818 3.495 3.436.801 6.11-24.66 24.478-52.341 44.668-83.685 59.818-29.171 14.101-59.824 23.139-91.862 27.624-1.891.265-3.85 1.014-6.504-.428 16.953-16.08 32.519-33.01 46.532-51.317 14.098-18.42 26.589-37.858 37.271-58.399-8.617-9.682-6.336-18.421.563-25.671 2.923-3.072.218-6.012-.347-8.83-.501-2.501-3.91-3.41-4.749-6.202-.694-2.312-.01-4.977-2.159-7.777-2.047 5.849-9.668 6.563-10.055 13.544 3.939 2.269 8.951 1.963 13.354 4.903-24.104 53.778-58.511 99.592-102.976 137.904l-1.523-.273c.007-33.485.007-66.973.007-100.46z" fill="#FDFDFD" clip-rule="evenodd" fill-rule="evenodd" data-color="1"/>
        <path d="M1071.214 496.89h-8.84c-41.32.001-82.642-.051-123.962.083-4.041.013-5.347-.971-5.485-5.235-1.332-40.854-8.297-80.709-21.948-119.31-2.771-7.833-5.735-15.597-8.677-23.572 1.748-2.39 4.807-2.595 7.347-3.509 27.68-9.966 53.893-22.889 78.511-38.968 3.987-2.605 6.078-2.481 9.351 1.306 31.597 36.563 53.29 78.231 65.116 125.035 4.826 19.098 7.3 38.577 8.573 58.214.114 1.79.014 3.593.014 5.956z" fill="#FDFDFD" clip-rule="evenodd" fill-rule="evenodd" data-color="1"/>
        <path d="M623.273 518.75c-5.057 3.735-9.912 7.846-17.04 5.211-1.563-.577-3.609.111-5.427.283-3.473.326-6.674-.134-9.033-3.041-2.027-2.499-3.626-1.46-4.32.87-2.289 7.688-7.05 12.604-14.424 16.026-6.82 3.166-10.006 11.983-8.964 19.298.67 4.699-2.885 7.604-5.894 10.334-3.126 2.836-6.733 5.143-10.057 8.854 5.679 0 11.37.232 17.03-.082 3.827-.212 5.974.906 5.321 4.888-.542 3.314 2.203 8.795-5.055 8.278-4.145-.295-8.329.018-12.493-.054-2.503-.043-3.695.95-3.592 3.536.094 2.329-.082 4.668.007 6.997.15 3.899.349 7.482-4.635 9.042-3.212 1.005-2.417 4.338-2.301 6.961.275 6.264.292 6.233-6.102 6.188-5.766-.041-11.53-.008-17.709.59 5.527 5.71 1.659 13.056 4.516 19.031 1.138 2.379.296 5.238-.814 7.766-1.405 3.2.119 4.854 3.1 3.902 8.276-2.643 13.056 2.267 17.629 7.629 2.309 2.709 4.234 5.166 7.041.646.555-.895 1.653-1.881 2.418-1.226 2.782 2.382 6.01.955 8.601.572 8.102-1.195 16.146.066 24.198-.336 2.508-.126 4.446-.337 5.379-3.253.663-2.075 2.671-2.51 4.92-2.369 5.141.322 10.3.465 15.452.478 5.287.014 5.832-1.197 4.983-6.39-1.502-9.185-2.699-18.429-3.693-27.684-.439-4.101-.074-8.288-.074-12.899 4.925 2.47 8.994 5.856 13.019 9.31 1.647.239 1.214.986.442 1.815 2.469 10.864 6.914 21.093 10.386 31.637-1.874 1.85-4.235 2.223-6.363 3.028-2.425.916-4.331 2.175-5.436 4.716-1.621 3.727-5.047 5.997-8.74 5.598-12.997-1.408-22.915 5.879-33.472 11.214-12.634 6.386-24.67 13.854-36.37 21.827-2.3 1.567-3.729 1.318-5.452-.769-22.141-26.818-39.3-56.49-51.237-89.165-10.586-28.978-16.478-58.885-18.106-89.692-.22-4.169.475-5.495 4.864-5.479 42.816.149 85.634.116 128.45.049 3.352-.006 5.865.315 4.641 5.214 5.266-.536 10.101-2.734 14.406.651z" fill="#FDFDFD" clip-rule="evenodd" fill-rule="evenodd" data-color="1"/>
        <path d="M648.421 638.009c5.384-2.167 11.198-2.924 16.74-4.492 3.149-.891 7.286-.642 11.002-1.023 4.676-.481 8.112-2.787 11.137-5.941 6.544-6.824 15.198-10.579 22.769-15.905 1.002-.705 2.396-1.188 3.262-.357 3.19 3.06 6.122 1.744 8.89-.389 3.038-2.341 5.415.476 7.92.562 8.07.278 13.819 5.336 20.447 8.441 8.697 4.075 17.05 8.887 25.551 13.382 2.019 1.067 3.486 2.469 3.488 4.998.005 6.319.082 12.639.124 18.958.008 1.183.025 2.713-1.216 3.032-9.097 2.341-7.969 10.97-10.713 17.2-.172.391.03.945.057 1.425-2.367.17-1.257-3.471-4.424-3.34v127.002c-4.095-2.001-6.424-4.608-8.97-6.9-40.266-36.245-71.803-78.922-94.521-128.129-1.569-3.4-1.478-4.649 2.562-5.835 29.221-8.575 58.998-13.582 89.415-14.934 3.463-.153 6.896-.994 11.254-.061v23.146c3.409-.613 3.586-2.854 4.228-4.524 2.487-6.479 4.327-13.241 9.803-18.156 1.774-1.593 1.304-3.983.842-6.14-.155-1.345.242-2.834-1.023-3.886-9.761-7.777-20.881-7.121-32.492-6.148-17.415 1.458-34.777 3.149-51.789 7.092-7.177 1.662-13.891 5.355-21.354 6.091-5.604.553-11.195.862-16.518 2.986-1.962.783-3.5.196-4.184-2.123-.607-2.058-1.514-4.025-2.287-6.032z" fill="#FDFDFD" clip-rule="evenodd" fill-rule="evenodd" data-color="1"/>
        <path d="M738.067 802.922c-71.979-8.354-133.137-38.396-183.871-90.287 2.022-2.915 4.617-4.138 6.939-5.621 23.919-15.274 49.174-27.857 75.702-37.971 4.798-1.829 6.541-.519 8.488 3.8 18.362 40.72 43.104 77.171 73.668 109.747 6.314 6.728 13.236 12.87 19.074 20.332z" fill="#FDFDFD" clip-rule="evenodd" fill-rule="evenodd" data-color="1"/>
        <path d="M900.574 507.477c-1.559 1.157-2.941 2.209-5.212 2.295-5.29.199-10.45 1.439-15.523 3.077-4.997 1.612-10.204-.55-15.32.573-3.098.68-9.099 6.769-8.546 9.84.606 3.368-.437 6.053-1.84 8.966-2.086 4.326-3.509 8.97-5.541 13.325-3.171 6.798-10.813 9.896-17.452 6.333-5.051-2.71-9.433-1.724-13.693.555-3.729 1.995-7.168 2.159-10.992.906-5.672-1.858-11.69-2.598-17.311-4.15-5.219-1.441-10.9-2.534-15.827-5.378-3.668-2.118-7.64-3.102-11.903-1.717-6.668 2.165-7.021 2.701-6.716 9.781.152 3.56-1.575 5.869-5.197 5.881-4.5.016-8.81-1.735-11.549-5.042-2.004-2.418-4.082-3.742-6.843-4.377-7.603-1.747-14.147-6.508-22.074-7.479-2.58-.316-3.462-2.538-1.206-4.789 3.013-3.005 6.31-5.776 1.718-10.238-1.499-1.458 1.705-4.263-1.602-6.326-2.981-1.859-5.221-2.574-8.091-.638-2.102 1.418-4.176 2.12-6.326.128-2.29-2.123-.232-3.879.538-5.274-.233-2.121-4.879-1.455-2.189-4.593 1.61.336 3.149.894 4.884.316 8.151-2.715 15.953-1.927 23.312 2.6 1.672 1.028 3.514.863 5.335.864 12.305.005 24.609.002 37.645.002v26.074c5.593-.818 9.937-3.792 15.034-3.102 1.434.194 1.246-2.048 1.254-3.323.031-4.993.23-10.001-.077-14.977-.236-3.824 1.169-4.762 4.843-4.736 21.971.151 44.006 1.039 65.89-.357 10.719-.685 21.719.052 32.401-2.942 5.795-1.625 12.1-1.445 18.176-2.078z" fill="#FDFDFD" clip-rule="evenodd" fill-rule="evenodd" data-color="1"/>
        <path d="M640.007 513.164c.596.656 1.312.833 1.169.881-5.207-.742-10.555 2.284-16.254 3.867-.373-3.825 1.171-5.394 5.148-4.948 3.279.368 6.622.155 9.937.2z" fill="#FDFDFD" clip-rule="evenodd" fill-rule="evenodd" data-color="1"/>
        <path d="M625.703 619.923c-.608-.495-.702-1.113-.439-1.816 1.508-.153 3.043-.188 4.179.994 4.699 4.893 10.026 9.009 15.617 12.81-5.039-.787-9.329-2.808-12.238-7.232-1.688-2.568-3.929-4.396-7.119-4.756z" fill="#35623C" clip-rule="evenodd" fill-rule="evenodd" data-color="7"/>
        <path d="M645.089 631.942c3.157 1.138 1.345 3.97 2.028 5.95-2.349-1.413-2.044-3.731-2.028-5.95z" fill="#35623C" clip-rule="evenodd" fill-rule="evenodd" data-color="7"/>
        <path d="M777.043 636.143c2.976.602 3.028 1.973 1.022 3.885-1.985-.862-.688-2.589-1.022-3.885z" fill="#51AF55" clip-rule="evenodd" fill-rule="evenodd" data-color="6"/>
        <path d="M891.572 769.842c-1.659-1.124-2.874-2.323-2.831-4.156.249-10.588-3.452-20.859-2.34-31.546.503-4.832 4.134-9.922 8.432-12.255 4.149-2.254 8.181-3.741 12.969-4.311 4.257-.506 6.403-4.988 8.594-8.428 1.089-1.712-.955-2.571-2.396-2.943-7.303-1.885-12.396-6.114-14.666-13.464a2.67 2.67 0 0 0-.791-1.198c-4.686-3.901-4.691-3.895-4.009-8.501-.835-1.571-4.515-.688-3.628-3.728 1.078-3.692 3.625-5.77 7.437-5.989 2.415 2.226-.636 3.568-.669 5.437 2.384 1.467 5.118 2.372 6.441 5.225.757 1.629 2.675 2.298 4.326 1.737 3.626-1.232 7.712-.841 11.009-2.207 4.178-1.731 8.35-1.646 12.533-2.384 4.013-.706 7.885-2.207 11.955-3.398 1.413 3.339.396 6.409-.006 9.625 2.939 1.49 5.099-2.083 8.098-1.281 2.207 6.017-.086 11.998-2.75 16.556-5.776 9.879-9.835 20.745-17.026 29.82-5.295 6.683-10.832 12.953-18.434 17.22-7.063 3.965-12.234 10.172-17.582 16.104-1.317 1.459-2.37 3.217-4.666 4.065z" fill="#51AF55" clip-rule="evenodd" fill-rule="evenodd" data-color="6"/>
    </g>
</svg>
